<?xml version="1.0" encoding="utf-8"?>
<!-- Generator: Adobe Illustrator 22.0.0, SVG Export Plug-In . SVG Version: 6.00 Build 0)  -->
<svg version="1.1" id="图层_1" xmlns="http://www.w3.org/2000/svg" xmlns:xlink="http://www.w3.org/1999/xlink" x="0px" y="0px"
	 viewBox="0 0 1024 1024" style="enable-background:new 0 0 1024 1024;" xml:space="preserve">
<style type="text/css">
	.st0{fill:#274DA0;}
	.st1{fill:#CCDAFE;}
	.st2{fill:#A8BEEF;}
	.st3{fill:url(#SVGID_1_);}
	.st4{fill:url(#SVGID_2_);}
	.st5{fill:#3B6CE4;}
	.st6{fill:url(#SVGID_3_);}
	.st7{fill:#FF7F2A;}
	.st8{fill:url(#SVGID_4_);}
	.st9{fill:#5D94FA;}
	.st10{fill:#FFFFFF;}
	.st11{fill:#285BBF;}
	.st12{fill:#EFBB81;}
	.st13{fill:#353535;}
	.st14{fill:#FDCACA;}
	.st15{fill:#63393F;}
	.st16{fill:#DBEEFE;}
	.st17{fill:#B9D8ED;}
	.st18{fill:#173872;}
</style>
<g>
	<g>
		<path class="st0" d="M609,596.6H414c-3.3,0-6-2.7-6-6l0,0c0-3.3,2.7-6,6-6h195c3.3,0,6,2.7,6,6l0,0
			C615,593.9,612.3,596.6,609,596.6z"/>
		
			<rect x="417" y="612.6" transform="matrix(-1.836970e-16 1 -1 -1.836970e-16 1058.5959 178.6584)" class="st0" width="46" height="12"/>
		
			<rect x="559" y="612.6" transform="matrix(-1.836970e-16 1 -1 -1.836970e-16 1200.5959 36.6584)" class="st0" width="46" height="12"/>
	</g>
	<g>
		<g>
			<polygon class="st1" points="162.5,717.1 162.5,511.3 244.9,511.3 244.9,363.1 385.5,363.1 385.5,717.1 			"/>
			<g>
				<rect x="258.9" y="387.6" class="st2" width="28.8" height="23"/>
				<rect x="302.1" y="387.6" class="st2" width="28.8" height="23"/>
				<rect x="345.3" y="387.6" class="st2" width="28.8" height="23"/>
				<rect x="258.9" y="423.6" class="st2" width="28.8" height="23"/>
				<rect x="302.1" y="423.6" class="st2" width="28.8" height="23"/>
				<rect x="345.3" y="423.6" class="st2" width="28.8" height="23"/>
				<rect x="258.9" y="459.5" class="st2" width="28.8" height="23"/>
				<rect x="302.1" y="459.5" class="st2" width="28.8" height="23"/>
				<rect x="345.3" y="459.5" class="st2" width="28.8" height="23"/>
				<rect x="258.9" y="495.5" class="st2" width="28.8" height="23"/>
				<rect x="302.1" y="495.5" class="st2" width="28.8" height="23"/>
				<rect x="345.3" y="495.5" class="st2" width="28.8" height="23"/>
				<rect x="258.9" y="531.5" class="st2" width="28.8" height="23"/>
				<rect x="215.7" y="531.5" class="st2" width="28.8" height="23"/>
				<rect x="172.6" y="531.5" class="st2" width="28.8" height="23"/>
				<rect x="302.1" y="531.5" class="st2" width="28.8" height="23"/>
				<rect x="345.3" y="531.5" class="st2" width="28.8" height="23"/>
				<rect x="258.9" y="567.5" class="st2" width="28.8" height="23"/>
				<rect x="215.7" y="567.5" class="st2" width="28.8" height="23"/>
				<rect x="172.6" y="567.5" class="st2" width="28.8" height="23"/>
				<rect x="302.1" y="567.5" class="st2" width="28.8" height="23"/>
				<rect x="345.3" y="567.5" class="st2" width="28.8" height="23"/>
				<rect x="258.9" y="603.4" class="st2" width="28.8" height="23"/>
				<rect x="215.7" y="603.4" class="st2" width="28.8" height="23"/>
				<rect x="172.6" y="603.4" class="st2" width="28.8" height="23"/>
				<rect x="302.1" y="603.4" class="st2" width="28.8" height="23"/>
				<rect x="345.3" y="603.4" class="st2" width="28.8" height="23"/>
				<rect x="258.9" y="639.4" class="st2" width="28.8" height="23"/>
				<rect x="215.7" y="639.4" class="st2" width="28.8" height="23"/>
				<rect x="172.6" y="639.4" class="st2" width="28.8" height="23"/>
				<rect x="302.1" y="639.4" class="st2" width="28.8" height="23"/>
				<rect x="345.3" y="639.4" class="st2" width="28.8" height="23"/>
			</g>
		</g>
		<g>
			<polygon class="st1" points="634.5,714.3 634.5,584.7 697.8,584.7 697.8,435.1 794.3,435.1 794.3,505.6 850.4,505.6 850.4,714.3 
							"/>
			<g>
				<rect x="712.2" y="453.8" class="st2" width="28.8" height="23"/>
				<rect x="752.5" y="453.8" class="st2" width="28.8" height="23"/>
				<rect x="712.2" y="597.7" class="st2" width="28.8" height="23"/>
				<rect x="671.9" y="597.7" class="st2" width="28.8" height="23"/>
				<rect x="671.9" y="633.7" class="st2" width="28.8" height="23"/>
				<rect x="752.5" y="597.7" class="st2" width="28.8" height="23"/>
				<rect x="712.2" y="489.8" class="st2" width="28.8" height="23"/>
				<rect x="752.5" y="489.8" class="st2" width="28.8" height="23"/>
				<rect x="712.2" y="525.7" class="st2" width="28.8" height="23"/>
				<rect x="752.5" y="525.7" class="st2" width="28.8" height="23"/>
				<rect x="792.8" y="525.7" class="st2" width="28.8" height="23"/>
				<rect x="792.8" y="561.7" class="st2" width="28.8" height="23"/>
				<rect x="792.8" y="597.7" class="st2" width="28.8" height="23"/>
				<rect x="792.8" y="633.7" class="st2" width="28.8" height="23"/>
				<rect x="712.2" y="561.7" class="st2" width="28.8" height="23"/>
				<rect x="752.5" y="561.7" class="st2" width="28.8" height="23"/>
				<rect x="712.2" y="633.7" class="st2" width="28.8" height="23"/>
				<rect x="752.5" y="633.7" class="st2" width="28.8" height="23"/>
			</g>
		</g>
		<g>
			<g>
				<linearGradient id="SVGID_1_" gradientUnits="userSpaceOnUse" x1="503.256" y1="622.252" x2="511.6131" y2="753.951">
					<stop  offset="0" style="stop-color:#91B3FF"/>
					<stop  offset="0.4022" style="stop-color:#6791F2"/>
					<stop  offset="0.7939" style="stop-color:#3B6CE4"/>
				</linearGradient>
				<path class="st3" d="M92,751.7c0,0,164.1-131,411.6-131c233.1,0,427.4,131,427.4,131s-65.5-24.7-204.4-27.3
					c-76.3-1.4-132.4,24.5-225.9,24.5c-87.8,0-149.8-12.1-243.2-15.8C170.9,729.5,92,751.7,92,751.7z"/>
				<linearGradient id="SVGID_2_" gradientUnits="userSpaceOnUse" x1="518.961" y1="619.2672" x2="522.944" y2="682.0345">
					<stop  offset="0" style="stop-color:#91B3FF"/>
					<stop  offset="0.2484" style="stop-color:#6795EC"/>
					<stop  offset="0.7939" style="stop-color:#004CBF"/>
				</linearGradient>
				<path class="st4" d="M428.7,624.7c-5.5,3.8-8.6,8.1-8.6,12.5c0,17.1,44.8,30.9,100,30.9s100-13.9,100-30.9
					c0-2.2-0.8-4.4-2.3-6.6c-36.5-6.2-74.8-10-114.3-10C477.6,620.7,452.6,622.2,428.7,624.7z"/>
				
					<ellipse transform="matrix(0.9596 -0.2814 0.2814 0.9596 -180.6804 124.0492)" class="st5" cx="341.7" cy="691.2" rx="46.8" ry="15.8"/>
				
					<ellipse transform="matrix(0.2923 -0.9563 0.9563 0.2923 -285.9238 1037.8418)" class="st5" cx="558.2" cy="712.1" rx="12.2" ry="30.2"/>
			</g>
			<g>
				<g>
					<linearGradient id="SVGID_3_" gradientUnits="userSpaceOnUse" x1="743.4358" y1="650.0374" x2="706.483" y2="599.7522">
						<stop  offset="0" style="stop-color:#EFBB81"/>
						<stop  offset="0.5011" style="stop-color:#F79E57"/>
						<stop  offset="1" style="stop-color:#FF7F2A"/>
					</linearGradient>
					<path class="st6" d="M749.2,628.7c4.9-5.1,7.4-11.8,6.4-18.6c-1.2-8.2-7.1-14.6-15.2-17.8c0.2-1.8,0.2-3.7-0.2-5.6
						c-1.9-9.1-10.8-15-19.8-13.1c-9,1.9-14.8,10.8-12.9,19.9c0.2,1.2,0.6,2.3,1.1,3.3c-6.9,5.4-10.9,13.4-9.7,21.6
						c0.6,3.8,2.1,7.2,4.5,10.1c-5.2,3.4-8.4,8-8.4,13c0,10.5,14,19,31.2,19c17.2,0,31.2-8.5,31.2-19
						C757.4,636.6,754.3,632.1,749.2,628.7z"/>
					<g>
						<g>
							<path class="st7" d="M725.5,687L725.5,687c-0.9-0.5-1.5-2.5-1.2-4.3c4.4-35.6,1.3-54.8-0.2-61.3c-0.4-1.6-0.1-3.4,0.6-4.4
								l0,0c0.9-1.3,2.1-0.7,2.6,1.4c1.8,8,5.1,28.9,0.4,66.1C727.5,686.4,726.5,687.6,725.5,687z"/>
						</g>
					</g>
				</g>
				<g>
					<linearGradient id="SVGID_4_" gradientUnits="userSpaceOnUse" x1="801.7661" y1="687.5665" x2="780.6832" y2="658.8769">
						<stop  offset="0" style="stop-color:#EFBB81"/>
						<stop  offset="0.5011" style="stop-color:#F79E57"/>
						<stop  offset="1" style="stop-color:#FF7F2A"/>
					</linearGradient>
					<path class="st8" d="M805.1,675.4c2.8-2.9,4.2-6.7,3.7-10.6c-0.7-4.7-4.1-8.3-8.7-10.2c0.1-1,0.1-2.1-0.1-3.2
						c-1.1-5.2-6.2-8.5-11.3-7.5c-5.2,1.1-8.4,6.2-7.3,11.4c0.1,0.7,0.3,1.3,0.6,1.9c-4,3.1-6.2,7.6-5.5,12.3
						c0.3,2.2,1.2,4.1,2.6,5.8c-3,1.9-4.8,4.5-4.8,7.4c0,6,8,10.8,17.8,10.8s17.8-4.9,17.8-10.8C809.7,679.9,808,677.3,805.1,675.4z
						"/>
					<g>
						<g>
							<path class="st7" d="M791.6,708.7L791.6,708.7c-0.5-0.3-0.8-1.4-0.7-2.5c2.5-20.3,0.8-31.2-0.1-35c-0.2-0.9-0.1-1.9,0.3-2.5
								l0,0c0.5-0.8,1.2-0.4,1.5,0.8c1,4.5,2.9,16.5,0.2,37.7C792.7,708.3,792.1,709,791.6,708.7z"/>
						</g>
					</g>
				</g>
			</g>
		</g>
	</g>
	<g>
		<path class="st5" d="M716.4,552.8H306.6c-5.6,0-10.1-4.5-10.1-10.1V282.9c0-5.6,4.5-10.1,10.1-10.1h409.8
			c5.6,0,10.1,4.5,10.1,10.1v259.8C726.5,548.3,721.9,552.8,716.4,552.8z"/>
		<path class="st9" d="M726.5,322.8h-430v-40c0-5.5,4.5-10,10-10h410c5.5,0,10,4.5,10,10V322.8z"/>
		<path class="st10" d="M338.5,306.8h-14c-4.4,0-8-3.6-8-8l0,0c0-4.4,3.6-8,8-8h14c4.4,0,8,3.6,8,8l0,0
			C346.5,303.2,342.9,306.8,338.5,306.8z"/>
		<path class="st10" d="M634.5,306.8H364.5c-4.4,0-8-3.6-8-8l0,0c0-4.4,3.6-8,8-8h270.1c4.4,0,8,3.6,8,8l0,0
			C642.5,303.2,639,306.8,634.5,306.8z"/>
		<g>
			<circle class="st10" cx="684.4" cy="281.8" r="5"/>
			<circle class="st10" cx="700.4" cy="281.8" r="5"/>
			<circle class="st10" cx="716.4" cy="281.8" r="5"/>
		</g>
		<g>
			<path class="st11" d="M461.9,466.2h-13.7V496h-21.3v-29.8h-49v-15.5l42.9-69.6h27.4v67.8h13.7V466.2z M426.9,448.8v-23.5
				c0-6.7,0.6-17.1,0.9-23.8h-0.6c-2.8,6.1-5.9,12.4-9.2,18.7l-17.9,28.6H426.9z"/>
			<path class="st11" d="M473.1,438.1c0-39.8,15.5-59.2,39-59.2c23.3,0,38.9,19.6,38.9,59.2c0,39.6-15.5,60.1-38.9,60.1
				C488.6,498.2,473.1,477.7,473.1,438.1z M529.3,438.1c0-32.2-7.5-41.5-17.3-41.5c-9.9,0-17.4,9.3-17.4,41.5
				c0,32.3,7.5,42.3,17.4,42.3C521.9,480.3,529.3,470.4,529.3,438.1z"/>
			<path class="st11" d="M645,466.2h-13.7V496H610v-29.8h-49v-15.5l42.9-69.6h27.4v67.8H645V466.2z M610,448.8v-23.5
				c0-6.7,0.6-17.1,0.9-23.8h-0.6c-2.8,6.1-5.9,12.4-9.2,18.7l-17.9,28.6H610z"/>
		</g>
		<g>
			<path class="st10" d="M461.7,459.8H448v29.8h-21.3v-29.8h-49v-15.5l42.9-69.6H448v67.8h13.7V459.8z M426.7,442.4v-23.5
				c0-6.7,0.6-17.1,0.9-23.8H427c-2.8,6.1-5.9,12.4-9.2,18.7L400,442.4H426.7z"/>
			<path class="st10" d="M472.9,431.6c0-39.8,15.5-59.2,39-59.2c23.3,0,38.9,19.6,38.9,59.2c0,39.6-15.5,60.1-38.9,60.1
				C488.4,491.8,472.9,471.3,472.9,431.6z M529.1,431.6c0-32.2-7.5-41.5-17.3-41.5c-9.9,0-17.4,9.3-17.4,41.5
				c0,32.3,7.5,42.3,17.4,42.3C521.7,473.9,529.1,464,529.1,431.6z"/>
			<path class="st10" d="M644.8,459.8h-13.7v29.8h-21.3v-29.8h-49v-15.5l42.9-69.6h27.4v67.8h13.7V459.8z M609.8,442.4v-23.5
				c0-6.7,0.6-17.1,0.9-23.8h-0.6c-2.8,6.1-5.9,12.4-9.2,18.7l-17.9,28.6H609.8z"/>
		</g>
		<g>
			<path class="st11" d="M636.7,365c-1.1-0.4-2.2,0.2-2.6,1.3c-0.4,1.1,0.1,2.2,1.1,2.6c1.1,0.4,2.2-0.2,2.6-1.3
				C638.3,366.5,637.8,365.4,636.7,365z"/>
			<path class="st11" d="M644.2,358.4c0.9-2.6-0.4-4.5-2.8-5.4c-1.8-0.6-3.5-0.3-5,0.5l1.1,2.1c0.9-0.4,1.8-0.6,2.7-0.3
				c1.1,0.4,1.5,1.3,1.1,2.3c-0.7,1.9-4.6,2-5.3,5.4l2.6,0.9C639.3,361,643.2,361.3,644.2,358.4z"/>
			<path class="st11" d="M657.3,366.4c-1-1.6-2.6-2.4-4.3-2.6l-0.4,2.3c1,0.2,1.8,0.5,2.3,1.3c0.6,0.9,0.4,1.9-0.5,2.5
				c-1.7,1.1-4.9-1.2-7.5,1.2l1.5,2.3c2.4-1.9,5.3,0.6,7.9-1C658.6,370.9,658.7,368.6,657.3,366.4z"/>
			<path class="st11" d="M643.5,372.7c-1,0.6-1.3,1.8-0.7,2.8c0.6,1,1.8,1.2,2.8,0.5c1-0.6,1.3-1.8,0.6-2.8
				C645.7,372.3,644.5,372.1,643.5,372.7z"/>
			<path class="st11" d="M622.1,364.1c-1.1,0.2-1.7,1.3-1.5,2.5c0.3,1.1,1.3,1.8,2.4,1.6c1.1-0.2,1.7-1.3,1.5-2.5
				C624.2,364.6,623.2,363.9,622.1,364.1z"/>
			<path class="st11" d="M619.6,351.5c-1.8,0.4-3.1,1.6-4,3.1l2.1,1.2c0.5-0.8,1.2-1.5,2.1-1.7c1.1-0.2,1.9,0.3,2.2,1.3
				c0.5,2-2.8,4.2-1.6,7.5l2.7-0.6c-1-2.9,2.5-4.7,1.8-7.7C624.3,351.8,622.1,350.9,619.6,351.5z"/>
		</g>
		<g>
			<path class="st12" d="M636.7,363.7c-1.1-0.4-2.2,0.2-2.6,1.3c-0.4,1.1,0.1,2.2,1.1,2.6c1.1,0.4,2.2-0.2,2.6-1.3
				C638.3,365.3,637.8,364.1,636.7,363.7z"/>
			<path class="st12" d="M644.2,357.2c0.9-2.6-0.4-4.5-2.8-5.4c-1.8-0.6-3.5-0.3-5,0.5l1.1,2.1c0.9-0.4,1.8-0.6,2.7-0.3
				c1.1,0.4,1.5,1.3,1.1,2.3c-0.7,1.9-4.6,2-5.3,5.4l2.6,0.9C639.3,359.7,643.2,360,644.2,357.2z"/>
			<path class="st12" d="M657.3,365.2c-1-1.6-2.6-2.4-4.3-2.6l-0.4,2.3c1,0.2,1.8,0.5,2.3,1.3c0.6,0.9,0.4,1.9-0.5,2.5
				c-1.7,1.1-4.9-1.2-7.5,1.2l1.5,2.3c2.4-1.9,5.3,0.6,7.9-1C658.6,369.6,658.7,367.3,657.3,365.2z"/>
			<path class="st12" d="M643.5,371.4c-1,0.6-1.3,1.8-0.7,2.8c0.6,1,1.8,1.2,2.8,0.5c1-0.6,1.3-1.8,0.6-2.8
				C645.7,371,644.5,370.8,643.5,371.4z"/>
			<path class="st12" d="M622.1,362.8c-1.1,0.2-1.7,1.3-1.5,2.5c0.3,1.1,1.3,1.8,2.4,1.6c1.1-0.2,1.7-1.3,1.5-2.5
				C624.2,363.3,623.2,362.6,622.1,362.8z"/>
			<path class="st12" d="M619.6,350.2c-1.8,0.4-3.1,1.6-4,3.1l2.1,1.2c0.5-0.8,1.2-1.5,2.1-1.7c1.1-0.2,1.9,0.3,2.2,1.3
				c0.5,2-2.8,4.2-1.6,7.5l2.7-0.6c-1-2.9,2.5-4.7,1.8-7.7C624.3,350.5,622.1,349.6,619.6,350.2z"/>
		</g>
	</g>
	<g>
		<path class="st13" d="M549.5,576.4h-76.1c-1.1,0-2-0.9-2-2v-42.1c0-1.1,0.9-2,2-2h76.1c1.1,0,2,0.9,2,2v42.1
			C551.5,575.5,550.6,576.4,549.5,576.4z"/>
		<rect x="473.5" y="533.4" class="st10" width="76" height="40"/>
	</g>
	<g>
		<polygon class="st14" points="508.7,559.9 517.7,559.9 517.7,575.3 507.9,575.3 		"/>
		<path class="st14" d="M501.6,550.5c0,0-2.4-0.3-2.6,1.3c-0.3,1.6,0.5,5,1.1,5.5c1,1.1,3.2-1,3.2-1L501.6,550.5z"/>
		<path class="st14" d="M520.5,556.4c0,0,2.6,1.6,3.7,0.8s1.8-3.4,1.8-4.5c0-1.1,0.3-2.1-1.1-2.1s-2.1-0.3-2.4,0
			S520.5,556.4,520.5,556.4z"/>
		<path class="st0" d="M490.7,617.8c0,0-12.2-6.1-16.9-2.6c-4.8,3.4-5.8,4.5-6.3,6.6c-0.5,2.1,5.3,17.2,7.4,19.8
			c2.1,2.6,7.4,8.5,8.5,12.2c1.1,3.7,4.8,15.6,10.6,16.4s29.8,4.2,35.1,1.3c5.3-2.9,8.2-7.1,9-8.7c0.8-1.6,1.3-5.5,3.7-9
			c2.4-3.4,7.1-9.8,8.5-12.9c1.3-3.2,3.7-11.6,3.7-13.7s-4-7.9-5.5-9c-1.6-1.1-9,2.6-10,4.2s-47.8,1.6-47.8,1.6L490.7,617.8z"/>
		<path class="st15" d="M526.4,526.9c-4.4-7.2-13.1,0.4-13.7,1c-0.6,0.6-3.6-2.4-10.4,1.3c-4.6,2.5-4.5,4.1-5.1,12.3
			c-0.6,8.2,3.1,9.6,3.1,9.6s0.5,0,1.3,0.1c0,1.7,0,3.6,0.1,4.9c0,0,0.4,4.7,3.8,7.3c2.5,1.8,4,2.3,6.2,2.5c3,0.2,6.6-0.7,9.1-4.6
			c0.7-1.1,0.9-3.7,0.9-3.7l1.4-7.2C526.4,549.2,530.8,534,526.4,526.9z"/>
		<path class="st16" d="M555.2,613.9c-1.3-4.5-4.8-14.7-4.8-14.7l0,0c-1.2-4.7-4.4-11-4.8-11.5c-0.5-0.8-2.7-8-5.9-9.3
			c-6.1-2.5-11.8-4.7-13.4-6.8c-1.6-2.1-5.2-4-5.2-4s-5.4,1-9.9,0.7c-4.3-0.3-5.8-1.3-6.8-0.9c-0.3,0.1-1.5,2.6-3.6,3.7
			c-2.1,1.1-4.2-0.5-18,8.7c0,0-3.4,1.3-6.1,9.2c-0.7,2.2-1.1,3.8-1.4,4.9l0,0c0,0-4.5,14.7-5.8,19.1c-0.7,2.3,0.1,3.7,1,4.5
			c0.8-0.7,1.9-1.5,3.2-2.4c3.4-2.4,10.4-0.1,14.3,1.5c0,3.9,1.3,8.7-2.1,15.7c-3.4,7.1-1.1,24,2.1,28.3c3.2,4.2,7.7,7.9,8.7,7.9
			c0,0,21.1,2.6,27.7,1.1c6.6-1.6,11.6-12.7,12.4-14.3c0.8-1.6,5.5-10.3,3.7-15.1c-1.8-4.8-5-6.9-5-6.9s0.5-4.9,1-10.7
			c0.9-0.1,1.5-0.3,1.6-0.4c1.1-1.6,8.5-5.3,10-4.2c0.5,0.3,1.1,1,1.9,2l2.3-0.6C552.4,619.4,556.5,618.4,555.2,613.9z M486.1,604.5
			c0.3,1.2,1.2,4.6,1.6,8l-4-2.1L486.1,604.5z M537.6,613.1c0.4-4.3,0.7-7.8,0.7-8.2c0-0.2,0-0.3,0.1-0.3l2.7,6.7L537.6,613.1z"/>
		<path class="st17" d="M512.3,572.1c0,0,5.8,0.1,8.2-0.6c2.4-0.7,3.9-1.8,3.9-1.8l-3.2-2c0,0-4.6,0.8-8.2,0.7
			c-3.6,0-8.5-1.4-8.5-1.2c0,0.2-2.7,3.1-2.7,3.1S508.8,572,512.3,572.1z"/>
		<polygon class="st18" points="483.3,617.4 488.3,623.4 488.3,621.8 488.2,619.3 		"/>
		<polygon class="st18" points="536.4,625.9 539.4,623.9 536.2,627.9 		"/>
		<polygon class="st17" points="484,609.6 479.6,611.7 485.3,611.2 483.8,610.4 		"/>
		<polygon class="st17" points="540.4,609.6 544.4,611.8 539.9,611.8 541,611.2 		"/>
		<polygon class="st17" points="485.9,605.2 486.1,604.5 486.3,605.2 485.9,596.4 		"/>
		<polygon class="st17" points="538.2,605.8 537.6,593.1 538.9,606.1 538.3,604.6 		"/>
	</g>
</g>
</svg>
