<?xml version="1.0" encoding="UTF-8"?>
<svg width="702px" height="443px" viewBox="0 0 702 443" version="1.1" xmlns="http://www.w3.org/2000/svg" xmlns:xlink="http://www.w3.org/1999/xlink">
    <!-- Generator: Sketch 60.1 (88133) - https://sketch.com -->
    <title>1</title>
    <desc>Created with Sketch.</desc>
    <defs>
        <path d="M662.981885,329.41972 C612.145054,405.111807 525.597319,442.95785 403.338679,442.95785 C219.950719,442.95785 77.2262556,354.580664 48.8591235,329.41972 C20.4919914,304.258777 0,267.516707 0,230.302509 C0,193.08831 26.5227832,177.664184 42.2473351,159.269589 C57.971887,140.874994 61.2796957,128.932857 61.085522,83.2695888 C60.8913482,37.6063208 106.981447,14.1058197 142.342618,4.15673451 C177.70379,-5.79235064 216.670206,1.28271328 279.501709,34.4848038 C342.333212,67.6868944 346.826847,103.661383 432.533018,90.9140671 C518.239189,78.1667508 533.173271,40.0677092 593.572828,49.8203271 C653.972384,59.5729449 700.769707,122.417151 700.769707,196.449397 C700.769707,245.804228 688.173766,290.127669 662.981885,329.41972 Z" id="path-1"></path>
        <linearGradient x1="0%" y1="50%" x2="100%" y2="50%" id="linearGradient-3">
            <stop stop-color="#F79122" offset="0%"></stop>
            <stop stop-color="#F28815" offset="100%"></stop>
        </linearGradient>
        <path d="M3.53184776,0 L61.4681522,0 C63.1250065,4.9985658e-15 64.4681522,1.34314575 64.4681522,3 C64.4681522,3.16257855 64.4549364,3.32488807 64.4286352,3.48532508 L55.4122418,58.4853251 C55.1745077,59.9355031 53.921294,61 52.4517588,61 L12.5482412,61 C11.078706,61 9.82549232,59.9355031 9.58775821,58.4853251 L0.571364767,3.48532508 C0.303327126,1.85029547 1.41149307,0.307554646 3.04652268,0.0395170047 C3.20695969,0.0132158559 3.36926922,-1.30240244e-15 3.53184776,0 Z" id="path-4"></path>
        <path d="M-1.42108547e-14,115.48446 C1.32743544,94.0102656 2.89289856,78.9508436 4.69638937,70.3061937 C8.43003277,52.4097675 15.5176097,37.8448008 19.4787027,30.195863 C29.7253967,10.409323 39.7215535,5.31301339 44.6820442,2.63347577 C49.6425348,-0.0460618448 60.3007481,-1.62222357 66.327433,2.63347577 C72.3541179,6.88917511 74.5668372,13.0533931 73.7454921,23.1564165 C72.924147,33.2594398 65.469448,39.1497458 58.0193289,42.7343523 C50.5692098,46.3189588 31.0128594,60.1734323 19.4787027,74.1118722 C11.7892649,83.4041655 5.29636401,97.195028 -1.42108547e-14,115.48446 Z" id="path-6"></path>
        <path d="M0,61.382873 C12.627563,35.4721831 22.8842273,18.9178104 30.7699929,11.7197549 C42.5986412,0.922671591 57.9238693,-1.5327187 66.3547392,0.814866828 C74.7856091,3.16245236 78.9526569,14.6315037 74.3469666,21.3628973 C69.7412762,28.0942909 65.4378728,28.0568843 50.8423324,30.6914365 C36.246792,33.3259886 29.5659376,36.8930178 23.8425136,39.4010039 C21.5824174,40.3913708 15.331987,43.4769377 10.1725242,48.4356558 C7.80517763,50.7108935 4.41433624,55.0266325 0,61.382873 Z" id="path-8"></path>
        <path d="M-2.08995462,65.6474954 C12.5975781,38.2270573 23.8842273,20.9178104 31.7699929,13.7197549 C43.5986412,2.92267159 58.9238693,0.467281299 67.3547392,2.81486683 C75.7856091,5.16245236 79.9526569,16.6315037 75.3469666,23.3628973 C70.7412762,30.0942909 66.4378728,30.0568843 51.8423324,32.6914365 C37.246792,35.3259886 30.5659376,38.8930178 24.8425136,41.4010039 C22.5824174,42.3913708 13.2420323,47.7415601 8.08256956,52.7002782 C5.71522301,54.9755159 2.32438162,59.2912549 -2.08995462,65.6474954 Z" id="path-10"></path>
        <path d="M70.3618111,117.305105 C65.1514723,93.5149533 59.5592828,76.7727476 53.5852425,67.0784883 C44.6241821,52.5370993 33.2521675,43.1631445 21.9273327,38.7089848 C10.6024978,34.2548251 1.37005489,28.3143707 0.166250333,19.5991494 C-1.03755422,10.8839281 4.30184276,1.89650161 15.9982131,0.359853321 C27.6945835,-1.17679496 39.680528,1.89650161 50.3232751,15.6556441 C60.9660221,29.4147866 71.7898492,71.0503233 71.7898492,87.5111312 C71.7898492,98.4850031 71.3138365,108.416328 70.3618111,117.305105 Z" id="path-12"></path>
        <path d="M40.4361627,109.727577 C42.2080966,71.0333394 41.2052946,44.753324 37.4277569,30.8875312 C31.7614504,10.088842 22.8541813,-1.27827958 11.3728741,0.114578571 C-0.108432993,1.50743672 -2.5866861,11.539269 2.54272088,19.2423116 C7.67212787,26.9453541 22.1964111,48.5363293 27.3543068,61.4631547 C30.7929039,70.0810384 35.1535225,86.1691793 40.4361627,109.727577 Z" id="path-14"></path>
        <path d="M86.8630745,43.7959111 C72.5806324,23.5140129 56.8667378,10.125403 39.7213908,3.6300812 C14.0033702,-6.11290144 -7.10542736e-15,5.90110838 -7.10542736e-15,14.52167 C-7.10542736e-15,23.1422316 6.80949202,28.0268155 17.0489556,28.0268155 C27.2884192,28.0268155 43.7234658,26.0070237 58.8280258,34.5737997 C68.8977326,40.2849837 79.1842128,49.927944 89.6874666,63.5026805 L86.8630745,43.7959111 Z" id="path-16"></path>
    </defs>
    <g id="页面-1" stroke="none" stroke-width="1" fill="none" fill-rule="evenodd">
        <g id="画板" transform="translate(-527.000000, -1237.000000)">
            <g id="1" transform="translate(527.332298, 1237.000000)">
                <g id="编组-68">
                    <mask id="mask-2" fill="white">
                        <use xlink:href="#path-1"></use>
                    </mask>
                    <use id="路径-244" fill="#F3F7FF" xlink:href="#path-1"></use>
                    <rect id="矩形" fill="#D0DEFE" mask="url(#mask-2)" x="44" y="345" width="613" height="108"></rect>
                    <rect id="矩形" fill="#C4D6FF" mask="url(#mask-2)" x="44" y="345" width="613" height="17"></rect>
                    <polygon id="路径-390" fill="#F3F7FF" mask="url(#mask-2)" points="70.5183061 345 627.913525 57 707.269531 108.574853 707.269531 355 657 345"></polygon>
                </g>
                <path d="M211.679653,4.17544529 L389.415331,4.17544529 C399.850737,4.17544529 408.850406,11.5065815 410.960765,21.7263701 L488.678827,398.089844 L488.678827,398.089844 L489.368344,403.275972 C490.969678,415.320251 482.503999,426.382207 470.45972,427.983541 C469.498515,428.111338 468.529911,428.175445 467.560247,428.175445 L275.468117,428.175445 C264.723347,428.175445 255.550456,420.414015 253.771679,409.817504 L189.983216,29.8175043 C187.971762,17.8348927 196.054982,6.49046132 208.037594,4.47900766 C209.241093,4.27698301 210.459315,4.17544529 211.679653,4.17544529 Z" id="矩形" fill="#6EA0FD"></path>
                <path d="M220.700438,4.17544529 L394.514752,4.17544529 C405.059338,4.17544529 414.121091,11.6571895 416.117035,22.0111497 L487.635108,393.01115 C489.934984,404.941761 482.127731,416.477852 470.19712,418.777729 C468.824805,419.042271 467.430405,419.175445 466.032824,419.175445 L283.278752,419.175445 C272.540535,419.175445 263.371227,411.423243 261.585191,400.8346 L199.006877,29.8346001 C196.985982,17.8535773 205.060261,6.50277979 217.041283,4.48188437 C218.250331,4.2779486 219.474312,4.17544529 220.700438,4.17544529 Z" id="矩形" fill="#A4C3FC"></path>
                <path d="M215.631526,16.6754453 L398.69978,16.6754453 C401.086575,16.6754453 403.140576,18.3624227 403.604444,20.703709 L478.495677,398.703709 C479.032352,401.41248 477.271521,404.043434 474.56275,404.580109 C474.242723,404.643514 473.91726,404.675445 473.591013,404.675445 L281.892026,404.675445 C279.463663,404.675445 277.386398,402.930636 276.967118,400.538744 L210.706618,22.5387438 C210.229832,19.8187924 212.048276,17.2273242 214.768228,16.7505376 C215.053278,16.7005704 215.342129,16.6754453 215.631526,16.6754453 Z" id="矩形" fill="#FFFFFF"></path>
                <path d="M285.532932,298 L437.532932,298 C439.189786,298 440.761588,299.343146 441.043649,301 L455.854443,388 C456.136504,389.656854 455.022014,391 453.36516,391 L301.36516,391 C299.708306,391 298.136504,389.656854 297.854443,388 L283.043649,301 C282.761588,299.343146 283.876078,298 285.532932,298 Z" id="矩形" fill="#DDE9FF"></path>
                <path d="M250.569104,56.1754453 L401.569104,56.1754453 C402.949816,56.1754453 404.255354,57.2947334 404.485105,58.6754453 C404.714856,60.0561572 403.781819,61.1754453 402.401107,61.1754453 L251.401107,61.1754453 C250.020395,61.1754453 248.714856,60.0561572 248.485105,58.6754453 C248.255354,57.2947334 249.188392,56.1754453 250.569104,56.1754453 Z" id="矩形" fill="#DDE9FF"></path>
                <path d="M253.564314,74.1754453 L404.564314,74.1754453 C405.945026,74.1754453 407.250564,75.2947334 407.480316,76.6754453 C407.710067,78.0561572 406.777029,79.1754453 405.396317,79.1754453 L254.396317,79.1754453 C253.015605,79.1754453 251.710067,78.0561572 251.480316,76.6754453 C251.250564,75.2947334 252.183602,74.1754453 253.564314,74.1754453 Z" id="矩形" fill="#DDE9FF"></path>
                <path d="M256.725925,93.1754453 L376.725925,93.1754453 C378.106637,93.1754453 379.412175,94.2947334 379.641927,95.6754453 C379.871678,97.0561572 378.93864,98.1754453 377.557928,98.1754453 L257.557928,98.1754453 C256.177216,98.1754453 254.871678,97.0561572 254.641927,95.6754453 C254.412175,94.2947334 255.345213,93.1754453 256.725925,93.1754453 Z" id="矩形" fill="#DDE9FF"></path>
                <path d="M275.029989,203.175445 L426.029989,203.175445 C427.4107,203.175445 428.716239,204.294733 428.94599,205.675445 C429.175741,207.056157 428.242703,208.175445 426.861991,208.175445 L275.861991,208.175445 C274.48128,208.175445 273.175741,207.056157 272.94599,205.675445 C272.716239,204.294733 273.649277,203.175445 275.029989,203.175445 Z" id="矩形" fill="#DDE9FF"></path>
                <path d="M278.025199,221.175445 L429.025199,221.175445 C430.405911,221.175445 431.711449,222.294733 431.9412,223.675445 C432.170952,225.056157 431.237914,226.175445 429.857202,226.175445 L278.857202,226.175445 C277.47649,226.175445 276.170952,225.056157 275.9412,223.675445 C275.711449,222.294733 276.644487,221.175445 278.025199,221.175445 Z" id="矩形" fill="#DDE9FF"></path>
                <path d="M281.18681,240.175445 L391.18681,240.175445 C392.567522,240.175445 393.87306,241.294733 394.102811,242.675445 C394.332563,244.056157 393.399525,245.175445 392.018813,245.175445 L282.018813,245.175445 C280.638101,245.175445 279.332563,244.056157 279.102811,242.675445 C278.87306,241.294733 279.806098,240.175445 281.18681,240.175445 Z" id="矩形" fill="#DDE9FF"></path>
                <path d="M285.346824,265.175445 L395.346824,265.175445 C396.727536,265.175445 398.033074,266.294733 398.262826,267.675445 C398.492577,269.056157 397.559539,270.175445 396.178827,270.175445 L286.178827,270.175445 C284.798115,270.175445 283.492577,269.056157 283.262826,267.675445 C283.033074,266.294733 283.966112,265.175445 285.346824,265.175445 Z" id="矩形" fill="#DDE9FF"></path>
                <g id="bingzhuangtu" transform="translate(512.678827, 198.175445)">
                    <path d="M3.78474401,0 L79.784744,0 C81.993883,0 84.205603,1.790861 84.7247589,4 L99.0599852,65 C99.579141,67.209139 98.209139,69 96,69 L20,69 C17.790861,69 15.579141,67.209139 15.0599852,65 L0.724758852,4 C0.205602991,1.790861 1.57560501,0 3.78474401,0 Z" id="矩形" fill="#FFFFFF"></path>
                    <path d="M79.784744,0 C81.993883,0 84.205603,1.790861 84.7247589,4 L99.0599852,65 C99.579141,67.209139 98.209139,69 96,69 L20,69 C17.790861,69 15.579141,67.209139 15.0599852,65 L0.724758852,4 C0.205602991,1.790861 1.57560501,0 3.78474401,0 L79.784744,0 Z M79.784744,1 L3.78474401,1 C2.28434125,1 1.39011997,2.09887522 1.66307857,3.60252579 L1.69823901,3.77122855 L16.0334653,64.7712286 C16.4326456,66.4698412 18.1318365,67.8948213 19.8133095,67.994439 L20,68 L96,68 C97.5004028,68 98.394624,66.9011248 98.1216654,65.3974742 L98.086505,65.2287714 L83.7512787,4.22877145 C83.3520984,2.53015876 81.6529075,1.10517872 79.9714345,1.00556103 L79.784744,1 Z" id="矩形" fill="#C9DCFF" fill-rule="nonzero"></path>
                    <path d="M56.354974,62 C43.10014,62 29.8298202,51.254834 26.714885,38 C23.5999498,24.745166 31.819962,14 45.074796,14 L46.7890817,14 L52.0263072,36.2857143 L74.3120215,36.2857143 L74.714885,38 C77.8298202,51.254834 69.609808,62 56.354974,62 Z M44.1662372,17.4285714 C33.53405,18.3780836 27.476029,27.6277726 30.3525896,38.5199385 C33.2291503,49.4121044 44.0422465,58.1676215 55.008876,58.4844828 C65.9755055,58.8013441 73.2907069,50.5696119 71.6891771,39.7142857 L49.4034628,39.7142857 L44.1662372,17.4285714 Z" id="形状" fill="#FFBB3C" fill-rule="nonzero"></path>
                    <path d="M79.5398664,33 L54.5398664,33 L48.6647737,8 L50.3314404,8 C63.2180845,8 76.1197844,18.4466892 79.1481936,31.3333333 L79.5398664,33 Z M57.0898541,29.6666667 L75.4231874,29.6666667 C72.3384174,19.8855692 62.7473044,12.1195091 52.7814527,11.3333333 L57.0898541,29.6666667 Z" id="形状" fill="#FFBB3C" fill-rule="nonzero"></path>
                </g>
                <g id="编组" transform="translate(400.678827, 237.175445)">
                    <path d="M4.36758598,2 L158.079319,2 C159.74881,2 161.436616,3.35267161 161.84914,5.0212766 L177.908354,69.9787234 C178.320878,71.6473284 177.301905,73 175.632414,73 L21.920681,73 C20.2511901,73 18.5633839,71.6473284 18.1508602,69.9787234 L2.09164566,5.0212766 C1.67912198,3.35267161 2.69809517,2 4.36758598,2 Z" id="矩形" fill="#FFE5B3"></path>
                    <path d="M2.36758598,0 L156.079319,0 C157.74881,0 159.436616,1.35267161 159.84914,3.0212766 L175.908354,67.9787234 C176.320878,69.6473284 175.301905,71 173.632414,71 L19.920681,71 C18.2511901,71 16.5633839,69.6473284 16.1508602,67.9787234 L0.0916456639,3.0212766 C-0.320878024,1.35267161 0.698095166,0 2.36758598,0 Z" id="矩形" fill="#C9DCFF"></path>
                    <path d="M12.1681605,10 L19.1769621,10 C20.0006843,10 20.8334433,10.6649618 21.0369814,11.4852338 L32.9547823,59.5147662 C33.1583203,60.3350382 32.6555617,61 31.8318395,61 L24.8230379,61 C23.9993157,61 23.1665567,60.3350382 22.9630186,59.5147662 L11.0452177,11.4852338 C10.8416797,10.6649618 11.3444383,10 12.1681605,10 Z" id="矩形" fill="#F8F8FA"></path>
                    <path d="M37.1681605,10 L44.1769621,10 C45.0006843,10 45.8334433,10.6649618 46.0369814,11.4852338 L57.9547823,59.5147662 C58.1583203,60.3350382 57.6555617,61 56.8318395,61 L49.8230379,61 C48.9993157,61 48.1665567,60.3350382 47.9630186,59.5147662 L36.0452177,11.4852338 C35.8416797,10.6649618 36.3444383,10 37.1681605,10 Z" id="矩形备份-16" fill="#F8F8FA"></path>
                    <path d="M63.1681605,10 L70.1769621,10 C71.0006843,10 71.8334433,10.6649618 72.0369814,11.4852338 L83.9547823,59.5147662 C84.1583203,60.3350382 83.6555617,61 82.8318395,61 L75.8230379,61 C74.9993157,61 74.1665567,60.3350382 73.9630186,59.5147662 L62.0452177,11.4852338 C61.8416797,10.6649618 62.3444383,10 63.1681605,10 Z" id="矩形备份-17" fill="#F8F8FA"></path>
                    <path d="M88.1681605,10 L95.1769621,10 C96.0006843,10 96.8334433,10.6649618 97.0369814,11.4852338 L108.954782,59.5147662 C109.15832,60.3350382 108.655562,61 107.83184,61 L100.823038,61 C99.9993157,61 99.1665567,60.3350382 98.9630186,59.5147662 L87.0452177,11.4852338 C86.8416797,10.6649618 87.3444383,10 88.1681605,10 Z" id="矩形备份-17" fill="#F8F8FA"></path>
                    <path d="M114.16816,10 L121.176962,10 C122.000684,10 122.833443,10.6649618 123.036981,11.4852338 L134.954782,59.5147662 C135.15832,60.3350382 134.655562,61 133.83184,61 L126.823038,61 C125.999316,61 125.166557,60.3350382 124.963019,59.5147662 L113.045218,11.4852338 C112.84168,10.6649618 113.344438,10 114.16816,10 Z" id="矩形备份-17" fill="#F8F8FA"></path>
                    <path d="M140.16816,10 L147.176962,10 C148.000684,10 148.833443,10.6649618 149.036981,11.4852338 L160.954782,59.5147662 C161.15832,60.3350382 160.655562,61 159.83184,61 L152.823038,61 C151.999316,61 151.166557,60.3350382 150.963019,59.5147662 L139.045218,11.4852338 C138.84168,10.6649618 139.344438,10 140.16816,10 Z" id="矩形备份-17" fill="#F8F8FA"></path>
                    <path d="M152.0515,13.0763828 C152.603052,13.1048256 153.027116,13.5750041 153.000024,14.1265559 C152.97023,14.6781078 152.500052,15.1021715 151.9485,15.0737288 L150.87821,15.0268958 C138.570172,14.5875778 132.456196,17.9036438 126.287915,25.8178524 L123.990756,28.8612251 C119.097231,35.3456815 115.516484,37.9086003 108.762576,38.0938806 C100.471606,38.3213271 88.2789342,34.0251095 69.8949723,24.0187578 C62.5951891,20.6886305 57.6419116,20.3000482 54.1075711,22.2906148 C51.4527459,23.7858318 49.7259522,26.2285673 47.2338431,31.4500942 L45.3521493,35.4713197 C42.415953,41.6390678 39.8913613,45.2264183 35.9216511,47.8140715 C30.8437063,51.1241269 24.0384341,51.9264858 14.7854565,49.8939919 C14.246032,49.7755028 13.9047965,49.2421585 14.0232856,48.702734 C14.1417747,48.1633095 14.675119,47.822074 15.2145435,47.9405631 C23.980341,49.8660438 30.2442111,49.1275175 34.829497,46.1386016 C38.3102976,43.8696438 40.6209035,40.6628485 43.3082028,35.1079202 L43.7384718,34.2062004 L45.0216028,31.4516551 L45.4277622,30.5908267 C48.0955795,24.998761 49.998332,22.3095796 53.1261124,20.5479907 C57.3111211,18.190963 62.900024,18.6294098 70.7879841,22.2305788 L72.0595743,22.9187148 C89.5071133,32.3077717 101.045135,36.304841 108.70773,36.0946327 C114.602997,35.9329076 117.707548,33.7903907 122.127521,28.0078108 L124.436552,24.9426525 C131.24868,16.0611499 138.133828,12.3586684 152.0515,13.0763828 Z" id="路径-41" fill="#F79122" fill-rule="nonzero"></path>
                    <line x1="93" y1="10" x2="106" y2="62" id="路径-43" stroke="#DFDFE9" stroke-dasharray="4"></line>
                    <path d="M100.063044,43 C103.546689,43 105.670943,40.3137085 104.807697,37 C103.944452,33.6862915 100.420601,31 96.9369556,31 C93.4533106,31 91.3290572,33.6862915 92.1923028,37 C93.0555484,40.3137085 96.5793994,43 100.063044,43 Z" id="椭圆形" fill="#FFFFFF" opacity="0.5"></path>
                    <path d="M99.3416393,40 C101.217448,40 102.361277,38.4329966 101.896452,36.5 C101.431628,34.5670034 99.5341696,33 97.6583607,33 C95.7825519,33 94.6387231,34.5670034 95.1035477,36.5 C95.5683722,38.4329966 97.4658304,40 99.3416393,40 Z" id="椭圆形" fill="#FFFFFF"></path>
                    <path d="M98.2404684,37 C98.7764137,37 99.103222,36.5522847 98.970415,36 C98.8376079,35.4477153 98.295477,35 97.7595316,35 C97.2235863,35 96.896778,35.4477153 97.029585,36 C97.1623921,36.5522847 97.704523,37 98.2404684,37 Z" id="椭圆形" fill="url(#linearGradient-3)"></path>
                </g>
                <g id="编组-64" transform="translate(299.678827, 120.175445)">
                    <path d="M4.18136513,4 L174.955364,4 C176.02108,4 177.0691,4.76277413 177.296183,5.7037037 L187.575434,48.2962963 C187.802517,49.2372259 187.12267,50 186.056954,50 L15.2829557,50 C14.2172396,50 13.1692189,49.2372259 12.942136,48.2962963 L2.66288545,5.7037037 C2.43580252,4.76277413 3.11564903,4 4.18136513,4 Z" id="矩形" fill="#FFE5B3"></path>
                    <path d="M2.29215308,0 L171.219946,0 C172.274141,0 173.310832,0.76277413 173.53546,1.7037037 L183.703583,44.2962963 C183.928211,45.2372259 183.255714,46 182.20152,46 L13.2737265,46 C12.2195316,46 11.1828409,45.2372259 10.9582129,44.2962963 L0.790089399,1.7037037 C0.565461417,0.76277413 1.23795823,0 2.29215308,0 Z" id="矩形" fill="#DFEAFF" transform="translate(92.246836, 23.000000) rotate(-360.000000) translate(-92.246836, -23.000000) "></path>
                    <path d="M49.381608,17.9828645 C48.5478681,16.6308234 47.5253346,15.3704534 46.3503226,14.2465163 L47.9658362,9.88865358 C48.2744405,9.05517414 47.758756,7.98973177 46.8137269,7.50831079 L40.3805513,4.23374216 C39.4352753,3.75256904 38.4185102,4.03810765 38.1095067,4.87152065 L36.4718561,9.2895019 C35.0036397,9.07603843 33.5564873,9.07603843 32.1792405,9.2895019 L28.6588218,4.87152065 C27.9946509,4.03810768 26.8562006,3.75256906 26.1159814,4.23374216 L21.0782349,7.50802036 C20.3383684,7.98944136 20.2767331,9.05488372 20.9405332,9.88836315 L24.4131329,14.2459355 C23.7171401,15.3699908 23.231749,16.6304537 22.9741925,17.9825741 L17.9397594,17.9825741 C16.9666133,17.9825741 16.3439618,18.7627467 16.5490283,19.7251383 L17.9445813,26.2745661 C18.1496478,27.2369577 19.1047779,28.0171303 20.0779241,28.0171303 L24.9664018,28.0171303 C25.802064,29.4459207 26.8482315,30.7801151 28.0642086,31.9678139 L26.5284226,36.1113413 C26.2194608,36.9447755 26.7352695,38.0104743 27.6805319,38.491684 L34.1134758,41.7665431 C35.0587907,42.2473235 36.0753058,41.9617173 36.3844584,41.1284742 L37.8968561,37.0488409 C39.4995574,37.304417 41.0900894,37.304417 42.5838743,37.0488409 L45.8348497,41.1284742 C46.4990974,41.9617173 47.6373265,42.2473235 48.377752,41.7665431 L53.4153747,38.491684 C53.7710413,38.2607633 53.9853934,37.8801566 54.0112213,37.4336903 C54.0370492,36.9872239 53.8722345,36.5115172 53.5530764,36.1113413 L50.25119,31.9678139 C50.9611351,30.7801843 51.4387282,29.4459725 51.6653724,28.0171303 L56.5538502,28.0171303 C57.5269963,28.0171303 58.1496478,27.2369577 57.9445813,26.2745661 L56.5490902,19.7254288 C56.4506195,19.2632987 56.1706768,18.8200699 55.7706423,18.4932674 C55.3706078,18.1664648 54.8833354,17.9828645 54.4160411,17.9828645 L49.381608,17.9828645 Z M38.951626,31 C34.540118,31 30.1867952,27.4112927 29.2468363,23 C28.3068775,18.5887073 31.1308359,15 35.5423438,15 C39.9535546,15 44.3068775,18.5887073 45.2468363,23 C46.1867952,27.4112927 43.3628368,31 38.951626,31 Z" id="形状" fill="#FFBB3C" fill-rule="nonzero"></path>
                    <path d="M68.4767945,10 L162.476795,10 C163.581364,10 164.667593,10.8954305 164.902955,12 C165.138317,13.1045695 164.433685,14 163.329115,14 L69.3291151,14 C68.2245456,14 67.1383166,13.1045695 66.9029548,12 C66.667593,10.8954305 67.372225,10 68.4767945,10 Z" id="矩形" fill="#FFFFFF"></path>
                    <path d="M70.3945158,19 L164.394516,19 C165.499085,19 166.585314,19.8954305 166.820676,21 C167.056038,22.1045695 166.351406,23 165.246836,23 L71.2468363,23 C70.1422668,23 69.0560379,22.1045695 68.820676,21 C68.5853142,19.8954305 69.2899463,19 70.3945158,19 Z" id="矩形" fill="#FFFFFF"></path>
                    <path d="M72.7383973,30 L136.738397,30 C137.842967,30 138.929196,30.8954305 139.164558,32 C139.399919,33.1045695 138.695287,34 137.590718,34 L73.5907178,34 C72.4861483,34 71.3999194,33.1045695 71.1645575,32 C70.9291957,30.8954305 71.6338278,30 72.7383973,30 Z" id="矩形" fill="#FFFFFF"></path>
                </g>
                <g id="编组-65" transform="translate(471.678827, 26.175445)">
                    <path d="M9.92722268,9.82455471 L146.927223,9.82455471 C151.345501,9.82455471 155.617995,13.3772071 156.47034,17.7596258 L173.441815,105.045408 C174.293926,109.427827 171.402976,112.98048 166.984698,112.98048 L29.984698,112.98048 C25.56642,112.98048 21.2939259,109.427827 20.4415806,105.045408 L3.47010539,17.7596258 C2.6179948,13.3772071 5.50894468,9.82455471 9.92722268,9.82455471 Z" id="矩形" fill="#D0DEFE"></path>
                    <path d="M6.60604987,6.95130335 L143.60605,6.95130335 C148.024328,6.95130335 152.296822,10.5039557 153.149167,14.8863745 L170.120642,102.172157 C170.972753,106.554576 168.081803,110.107228 163.663525,110.107228 L26.6635252,110.107228 C22.2452472,110.107228 17.972753,106.554576 17.1204078,102.172157 L0.148932582,14.8863745 C-0.703178013,10.5039557 2.18777187,6.95130335 6.60604987,6.95130335 Z" id="矩形" fill="#FFFFFF"></path>
                    <path d="M6.60604987,6.95130335 L143.60605,6.95130335 C148.024328,6.95130335 152.296822,10.5039557 153.149283,14.8863745 L156.234698,30.7565168 L3.23469801,30.7565168 L0.148932582,14.8863745 C-0.703178013,10.5039557 2.18777187,6.95130335 6.60604987,6.95130335 Z" id="矩形" fill="#FFBB3C"></path>
                    <path d="M12.2060808,8.85391006 L138.477647,8.85391006 C142.549931,8.85391006 146.487847,11.5402016 147.273552,14.8539101 L150.117349,26.8539101 L9.09873867,26.8539101 L6.25461872,14.8539101 C5.46923668,11.5402016 8.13379704,8.85391006 12.2060808,8.85391006 Z" id="矩形" fill="#FFC964"></path>
                    <g id="编组-138" transform="translate(22.504795, 40.667240)" fill="#DDE9FF">
                        <path d="M1.65151247,8.8817842e-14 L23.6515125,8.8817842e-14 C24.756082,8.8817842e-14 25.8242055,0.88816309 26.0372918,1.98376778 L30.2801606,23.8052134 C30.4931883,24.9008181 29.7704508,25.7889812 28.6658813,25.7889812 L6.66588129,25.7889812 C5.56131179,25.7889812 4.49318826,24.9008181 4.28010194,23.8052134 L0.0372331455,1.98376778 C-0.175794503,0.88816309 0.546942967,8.8817842e-14 1.65151247,8.8817842e-14 Z" id="矩形"></path>
                        <path d="M32.8513671,1 L54.8513671,1 C55.9559366,1 57.0240601,1.88816309 57.2371464,2.98376778 L61.4800152,24.8052134 C61.6930429,25.9008181 60.9703054,26.7889812 59.8657359,26.7889812 L37.8657359,26.7889812 C36.7611664,26.7889812 35.6930429,25.9008181 35.4799566,24.8052134 L31.2370878,2.98376778 C31.0240601,1.88816309 31.7467976,1 32.8513671,1 Z" id="矩形"></path>
                        <path d="M63.6515125,8.8817842e-14 L85.6515125,8.8817842e-14 C86.756082,8.8817842e-14 87.8242055,0.88816309 88.0372918,1.98376778 L92.2801606,23.8052134 C92.4931883,24.9008181 91.7704508,25.7889812 90.6658813,25.7889812 L68.6658813,25.7889812 C67.5613118,25.7889812 66.4931883,24.9008181 66.2801019,23.8052134 L62.0372331,1.98376778 C61.8242055,0.88816309 62.546943,8.8817842e-14 63.6515125,8.8817842e-14 Z" id="矩形"></path>
                        <path d="M95.6515125,8.8817842e-14 L117.651512,8.8817842e-14 C118.756082,8.8817842e-14 119.824205,0.88816309 120.037292,1.98376778 L124.280161,23.8052134 C124.493188,24.9008181 123.770451,25.7889812 122.665881,25.7889812 L100.665881,25.7889812 C99.5613118,25.7889812 98.4931883,24.9008181 98.2801019,23.8052134 L94.0372331,1.98376778 C93.8242055,0.88816309 94.546943,8.8817842e-14 95.6515125,8.8817842e-14 Z" id="矩形"></path>
                        <path d="M8.01590367,32.7321684 L30.0159037,32.7321684 C31.1204732,32.7321684 32.1885967,33.6203315 32.401683,34.7159362 L36.6445518,56.5373819 C36.8575795,57.6329866 36.134842,58.5211496 35.0302725,58.5211496 L13.0302725,58.5211496 C11.925703,58.5211496 10.8575795,57.6329866 10.6444931,56.5373819 L6.40162435,34.7159362 C6.1885967,33.6203315 6.91133417,32.7321684 8.01590367,32.7321684 Z" id="矩形"></path>
                        <path d="M39.0159037,32.7321684 L61.0159037,32.7321684 C62.1204732,32.7321684 63.1885967,33.6203315 63.401683,34.7159362 L67.6445518,56.5373819 C67.8575795,57.6329866 67.134842,58.5211496 66.0302725,58.5211496 L44.0302725,58.5211496 C42.925703,58.5211496 41.8575795,57.6329866 41.6444931,56.5373819 L37.4016243,34.7159362 C37.1885967,33.6203315 37.9113342,32.7321684 39.0159037,32.7321684 Z" id="矩形"></path>
                        <path d="M70.2157583,33.7321684 L92.2157583,33.7321684 C93.3203278,33.7321684 94.3884513,34.6203315 94.6015377,35.7159362 L98.8444064,57.5373819 C99.0574341,58.6329866 98.3346966,59.5211496 97.2301271,59.5211496 L75.2301271,59.5211496 C74.1255576,59.5211496 73.0574341,58.6329866 72.8443478,57.5373819 L68.601479,35.7159362 C68.3884513,34.6203315 69.1111888,33.7321684 70.2157583,33.7321684 Z" id="矩形"></path>
                        <path d="M102.215758,33.7321684 L124.215758,33.7321684 C125.320328,33.7321684 126.388451,34.6203315 126.601538,35.7159362 L130.844406,57.5373819 C131.057434,58.6329866 130.334697,59.5211496 129.230127,59.5211496 L107.230127,59.5211496 C106.125558,59.5211496 105.057434,58.6329866 104.844348,57.5373819 L100.601479,35.7159362 C100.388451,34.6203315 101.111189,33.7321684 102.215758,33.7321684 Z" id="矩形"></path>
                    </g>
                    <g id="编组-138" transform="translate(22.504795, 40.667240)" fill="#C9DCFF" fill-rule="nonzero">
                        <path d="M23.6515125,8.8817842e-14 C24.756082,8.8817842e-14 25.8242055,0.88816309 26.0372918,1.98376778 L30.2801606,23.8052134 C30.4931883,24.9008181 29.7704508,25.7889812 28.6658813,25.7889812 L6.66588129,25.7889812 C5.56131179,25.7889812 4.49318826,24.9008181 4.28010194,23.8052134 L0.0372331455,1.98376778 C-0.175794503,0.88816309 0.546942967,8.8817842e-14 1.65151247,8.8817842e-14 L23.6515125,8.8817842e-14 Z M23.6515125,1 L1.65151247,1 C1.21522252,1 0.96558314,1.26553632 1.00335982,1.68491994 L1.01885014,1.79290636 L5.26170859,23.6142988 C5.37561701,24.1999704 5.95645243,24.7156672 6.54078299,24.7818238 L6.66588129,24.7889812 L28.6658813,24.7889812 C29.1021712,24.7889812 29.3518106,24.5234449 29.3140339,24.1040613 L29.2985436,23.9960748 L25.0556852,2.1746824 C24.9417767,1.58901083 24.3609413,1.07331397 23.7766108,1.00715737 L23.6515125,1 Z" id="矩形"></path>
                        <path d="M54.8513671,1 C55.9559366,1 57.0240601,1.88816309 57.2371464,2.98376778 L61.4800152,24.8052134 C61.6930429,25.9008181 60.9703054,26.7889812 59.8657359,26.7889812 L37.8657359,26.7889812 C36.7611664,26.7889812 35.6930429,25.9008181 35.4799566,24.8052134 L31.2370878,2.98376778 C31.0240601,1.88816309 31.7467976,1 32.8513671,1 L54.8513671,1 Z M54.8513671,2 L32.8513671,2 C32.4150772,2 32.1654378,2.26553632 32.2032145,2.68491994 L32.2187048,2.79290636 L36.4615632,24.6142988 C36.5754716,25.1999704 37.1563071,25.7156672 37.7406376,25.7818238 L37.8657359,25.7889812 L59.8657359,25.7889812 C60.3020259,25.7889812 60.5516653,25.5234449 60.5138886,25.1040613 L60.4983983,24.9960748 L56.2555398,3.1746824 C56.1416314,2.58901083 55.560796,2.07331397 54.9764654,2.00715737 L54.8513671,2 Z" id="矩形"></path>
                        <path d="M85.6515125,8.8817842e-14 C86.756082,8.8817842e-14 87.8242055,0.88816309 88.0372918,1.98376778 L92.2801606,23.8052134 C92.4931883,24.9008181 91.7704508,25.7889812 90.6658813,25.7889812 L68.6658813,25.7889812 C67.5613118,25.7889812 66.4931883,24.9008181 66.2801019,23.8052134 L62.0372331,1.98376778 C61.8242055,0.88816309 62.546943,8.8817842e-14 63.6515125,8.8817842e-14 L85.6515125,8.8817842e-14 Z M85.6515125,1 L63.6515125,1 C63.2152225,1 62.9655831,1.26553632 63.0033598,1.68491994 L63.0188501,1.79290636 L67.2617086,23.6142988 C67.375617,24.1999704 67.9564524,24.7156672 68.540783,24.7818238 L68.6658813,24.7889812 L90.6658813,24.7889812 C91.1021712,24.7889812 91.3518106,24.5234449 91.3140339,24.1040613 L91.2985436,23.9960748 L87.0556852,2.1746824 C86.9417767,1.58901083 86.3609413,1.07331397 85.7766108,1.00715737 L85.6515125,1 Z" id="矩形"></path>
                        <path d="M117.651512,8.8817842e-14 C118.756082,8.8817842e-14 119.824205,0.88816309 120.037292,1.98376778 L124.280161,23.8052134 C124.493188,24.9008181 123.770451,25.7889812 122.665881,25.7889812 L100.665881,25.7889812 C99.5613118,25.7889812 98.4931883,24.9008181 98.2801019,23.8052134 L94.0372331,1.98376778 C93.8242055,0.88816309 94.546943,8.8817842e-14 95.6515125,8.8817842e-14 L117.651512,8.8817842e-14 Z M117.651512,1 L95.6515125,1 C95.2152225,1 94.9655831,1.26553632 95.0033598,1.68491994 L95.0188501,1.79290636 L99.2617086,23.6142988 C99.375617,24.1999704 99.9564524,24.7156672 100.540783,24.7818238 L100.665881,24.7889812 L122.665881,24.7889812 C123.102171,24.7889812 123.351811,24.5234449 123.314034,24.1040613 L123.298544,23.9960748 L119.055685,2.1746824 C118.941777,1.58901083 118.360941,1.07331397 117.776611,1.00715737 L117.651512,1 Z" id="矩形"></path>
                        <path d="M30.0159037,32.7321684 C31.1204732,32.7321684 32.1885967,33.6203315 32.401683,34.7159362 L36.6445518,56.5373819 C36.8575795,57.6329866 36.134842,58.5211496 35.0302725,58.5211496 L13.0302725,58.5211496 C11.925703,58.5211496 10.8575795,57.6329866 10.6444931,56.5373819 L6.40162435,34.7159362 C6.1885967,33.6203315 6.91133417,32.7321684 8.01590367,32.7321684 L30.0159037,32.7321684 Z M30.0159037,33.7321684 L8.01590367,33.7321684 C7.57961372,33.7321684 7.32997434,33.9977048 7.36775102,34.4170884 L7.38324134,34.5250748 L11.6260998,56.3464672 C11.7400082,56.9321388 12.3208436,57.4478357 12.9051742,57.5139923 L13.0302725,57.5211496 L35.0302725,57.5211496 C35.4665624,57.5211496 35.7162018,57.2556133 35.6784251,56.8362297 L35.6629348,56.7282433 L31.4200764,34.9068508 C31.306168,34.3211793 30.7253325,33.8054824 30.141002,33.7393258 L30.0159037,33.7321684 Z" id="矩形"></path>
                        <path d="M61.0159037,32.7321684 C62.1204732,32.7321684 63.1885967,33.6203315 63.401683,34.7159362 L67.6445518,56.5373819 C67.8575795,57.6329866 67.134842,58.5211496 66.0302725,58.5211496 L44.0302725,58.5211496 C42.925703,58.5211496 41.8575795,57.6329866 41.6444931,56.5373819 L37.4016243,34.7159362 C37.1885967,33.6203315 37.9113342,32.7321684 39.0159037,32.7321684 L61.0159037,32.7321684 Z M61.0159037,33.7321684 L39.0159037,33.7321684 C38.5796137,33.7321684 38.3299743,33.9977048 38.367751,34.4170884 L38.3832413,34.5250748 L42.6260998,56.3464672 C42.7400082,56.9321388 43.3208436,57.4478357 43.9051742,57.5139923 L44.0302725,57.5211496 L66.0302725,57.5211496 C66.4665624,57.5211496 66.7162018,57.2556133 66.6784251,56.8362297 L66.6629348,56.7282433 L62.4200764,34.9068508 C62.306168,34.3211793 61.7253325,33.8054824 61.141002,33.7393258 L61.0159037,33.7321684 Z" id="矩形"></path>
                        <path d="M92.2157583,33.7321684 C93.3203278,33.7321684 94.3884513,34.6203315 94.6015377,35.7159362 L98.8444064,57.5373819 C99.0574341,58.6329866 98.3346966,59.5211496 97.2301271,59.5211496 L75.2301271,59.5211496 C74.1255576,59.5211496 73.0574341,58.6329866 72.8443478,57.5373819 L68.601479,35.7159362 C68.3884513,34.6203315 69.1111888,33.7321684 70.2157583,33.7321684 L92.2157583,33.7321684 Z M92.2157583,34.7321684 L70.2157583,34.7321684 C69.7794684,34.7321684 69.529829,34.9977048 69.5676057,35.4170884 L69.583096,35.5250748 L73.8259544,57.3464672 C73.9398628,57.9321388 74.5206983,58.4478357 75.1050288,58.5139923 L75.2301271,58.5211496 L97.2301271,58.5211496 C97.6664171,58.5211496 97.9160565,58.2556133 97.8782798,57.8362297 L97.8627895,57.7282433 L93.619931,35.9068508 C93.5060226,35.3211793 92.9251872,34.8054824 92.3408566,34.7393258 L92.2157583,34.7321684 Z" id="矩形"></path>
                        <path d="M124.215758,33.7321684 C125.320328,33.7321684 126.388451,34.6203315 126.601538,35.7159362 L130.844406,57.5373819 C131.057434,58.6329866 130.334697,59.5211496 129.230127,59.5211496 L107.230127,59.5211496 C106.125558,59.5211496 105.057434,58.6329866 104.844348,57.5373819 L100.601479,35.7159362 C100.388451,34.6203315 101.111189,33.7321684 102.215758,33.7321684 L124.215758,33.7321684 Z M124.215758,34.7321684 L102.215758,34.7321684 C101.779468,34.7321684 101.529829,34.9977048 101.567606,35.4170884 L101.583096,35.5250748 L105.825954,57.3464672 C105.939863,57.9321388 106.520698,58.4478357 107.105029,58.5139923 L107.230127,58.5211496 L129.230127,58.5211496 C129.666417,58.5211496 129.916056,58.2556133 129.87828,57.8362297 L129.862789,57.7282433 L125.619931,35.9068508 C125.506023,35.3211793 124.925187,34.8054824 124.340857,34.7393258 L124.215758,34.7321684 Z" id="矩形"></path>
                    </g>
                    <path d="M46.2490332,-2.27373675e-13 C47.9058874,-2.27373675e-13 49.5080727,1.33224463 49.8277022,2.97565168 L52.1419383,14.8782584 C52.4614798,16.5216654 51.3773736,17.8539101 49.7205193,17.8539101 C48.0636651,17.8539101 46.4614798,16.5216654 46.1418503,14.8782584 L43.8276142,2.97565168 C43.5080727,1.33224463 44.5921789,-2.27373675e-13 46.2490332,-2.27373675e-13 Z" id="矩形" fill="#FFFFFF"></path>
                    <path d="M96.2490332,-2.27373675e-13 C97.9058874,-2.27373675e-13 99.5080727,1.33224463 99.8277022,2.97565168 L102.141938,14.8782584 C102.46148,16.5216654 101.377374,17.8539101 99.7205193,17.8539101 C98.0636651,17.8539101 96.4614798,16.5216654 96.1418503,14.8782584 L93.8276142,2.97565168 C93.5080727,1.33224463 94.5921789,-2.27373675e-13 96.2490332,-2.27373675e-13 Z" id="矩形" fill="#FFFFFF"></path>
                    <path d="M46.2490332,0 C47.9058874,0 49.5080727,1.33224463 49.8277022,2.97565168 L52.1419383,14.8782584 C52.4614798,16.5216654 51.3773736,17.8539101 49.7205193,17.8539101 C48.0636651,17.8539101 46.4614798,16.5216654 46.1418503,14.8782584 L43.8276142,2.97565168 C43.5080727,1.33224463 44.5921789,0 46.2490332,0 Z M46.2490332,1 C45.2729073,1 44.6686374,1.68545844 44.7861483,2.63969541 L44.8092321,2.78479471 L47.1234569,14.6873438 C47.3520457,15.8626559 48.544169,16.8539101 49.7205193,16.8539101 C50.6966452,16.8539101 51.3009151,16.1684516 51.1834042,15.2142147 L51.1603204,15.0691154 L48.8460956,3.16656629 C48.6175068,1.99125419 47.4253835,1 46.2490332,1 Z" id="矩形" fill="#FFBB3C" fill-rule="nonzero"></path>
                    <path d="M96.2490332,0 C97.9058874,0 99.5080727,1.33224463 99.8277022,2.97565168 L102.141938,14.8782584 C102.46148,16.5216654 101.377374,17.8539101 99.7205193,17.8539101 C98.0636651,17.8539101 96.4614798,16.5216654 96.1418503,14.8782584 L93.8276142,2.97565168 C93.5080727,1.33224463 94.5921789,0 96.2490332,0 Z M96.2490332,1 C95.2729073,1 94.6686374,1.68545844 94.7861483,2.63969541 L94.8092321,2.78479471 L97.1234569,14.6873438 C97.3520457,15.8626559 98.544169,16.8539101 99.7205193,16.8539101 C100.696645,16.8539101 101.300915,16.1684516 101.183404,15.2142147 L101.16032,15.0691154 L98.8460956,3.16656629 C98.6175068,1.99125419 97.4253835,1 96.2490332,1 Z" id="矩形" fill="#FFBB3C" fill-rule="nonzero"></path>
                </g>
                <g id="编组-81" transform="translate(93.000000, 77.000000)">
                    <g id="编组-63" transform="translate(63.914093, 222.107327)">
                        <mask id="mask-5" fill="white">
                            <use xlink:href="#path-4"></use>
                        </mask>
                        <use id="矩形" fill="#DDE9FF" xlink:href="#path-4"></use>
                        <path d="M1.20882698,0 L63.4052217,0 C64.4023405,3.36954592e-15 65.3342971,0.495421402 65.8920292,1.32196893 L67.6990928,4 C68.491521,5.17436234 68.1819023,6.76876112 67.0075399,7.56118935 C66.5836904,7.84719165 66.0840393,8 65.5727217,8 L2.06042429,8 C0.819095645,8 -0.294028853,7.23549708 -0.7396257,6.076903 L-1.5384054,4 C-2.12194354,2.48274545 -1.36501684,0.779716485 0.152237704,0.196178338 C0.489411271,0.0665009295 0.84757604,9.54539142e-16 1.20882698,0 Z" id="矩形" fill="#FFBB3C" mask="url(#mask-5)"></path>
                    </g>
                    <g id="编组-103" transform="translate(90.000000, 84.000000)">
                        <mask id="mask-7" fill="white">
                            <use xlink:href="#path-6"></use>
                        </mask>
                        <use id="路径-246" fill="#EAFFF3" xlink:href="#path-6"></use>
                        <path d="M-1.42108547e-14,119.48446 C1.32743544,98.0102656 2.89289856,82.9508436 4.69638937,74.3061937 C8.43003277,56.4097675 15.5176097,41.8448008 19.4787027,34.195863 C29.7253967,14.409323 39.7215535,9.31301339 44.6820442,6.63347577 C49.6425348,3.95393816 60.3007481,2.37777643 66.327433,6.63347577 C72.3541179,10.8891751 74.5668372,17.0533931 73.7454921,27.1564165 C72.924147,37.2594398 65.469448,43.1497458 58.0193289,46.7343523 C50.5692098,50.3189588 31.0128594,64.1734323 19.4787027,78.1118722 C11.7892649,87.4041655 5.29636401,101.195028 -1.42108547e-14,119.48446 Z" id="路径-246" fill="#D3F0E0" mask="url(#mask-7)"></path>
                        <path d="M61.0623172,22.0501917 C61.3287364,21.9775593 61.6035919,22.1346545 61.6762243,22.4010736 C61.7488567,22.6674927 61.5917615,22.9423483 61.3253424,23.0149807 C30.6460939,31.3788982 10.4195539,62.2160822 0.685726462,115.62224 C0.636212326,115.893907 0.375843567,116.073997 0.104176562,116.024483 C-0.167490443,115.974969 -0.347580926,115.7146 -0.29806679,115.442933 C9.49743654,61.6983811 29.9375632,30.535565 61.0623172,22.0501917 Z" id="路径-251" fill="#9FC8B1" fill-rule="nonzero" mask="url(#mask-7)"></path>
                        <path d="M53.2988281,45.3242187 C23.2203776,62.4189453 5.8733724,84.8946126 1.2578125,112.751221 C31.0439453,72.423808 48.9638672,50.9959922 55.0175781,48.4677734 C61.0712891,45.9395547 60.4983724,44.8917031 53.2988281,45.3242187 Z" id="路径-358" fill="#C4E0D1" mask="url(#mask-7)"></path>
                    </g>
                    <g id="编组-102" transform="translate(112.698267, 46.543175)">
                        <mask id="mask-9" fill="white">
                            <use xlink:href="#path-8"></use>
                        </mask>
                        <use id="路径-247" fill="#EAFFF3" xlink:href="#path-8"></use>
                        <mask id="mask-11" fill="white">
                            <use xlink:href="#path-10"></use>
                        </mask>
                        <use id="路径-247" fill="#D3F0E0" xlink:href="#path-10"></use>
                        <path d="M60.5426357,11.3128799 C60.8171154,11.2826219 61.064154,11.4806027 61.094412,11.7550823 C61.12467,12.0295619 60.9266892,12.2766006 60.6522096,12.3068585 C39.729997,14.6132741 18.9462607,31.6462845 -1.67037213,63.4563407 C-1.8205596,63.6880697 -2.13016408,63.7541722 -2.36189309,63.6039847 C-2.5936221,63.4537972 -2.65972458,63.1441927 -2.50953711,62.9124637 C18.2541689,30.8754836 39.2620175,13.6588053 60.5426357,11.3128799 Z" id="路径-253" fill="#9FC8B1" fill-rule="nonzero" mask="url(#mask-11)"></path>
                        <path d="M77,14.004188 C76.1582967,19.0507483 74.4123575,22.6778642 71.7621824,24.8855357 C67.7869198,28.1970428 61.7621824,29.629188 56.5004637,30.6914365 C51.2387449,31.753685 28.3095457,36.4578462 17.2245848,45.7839732 L39.1176512,38.3640513 L70.2081638,30.6914365 L79.9838621,20.4621958 L77,14.004188 Z" id="路径-357" fill="#C4E0D1" mask="url(#mask-11)"></path>
                    </g>
                    <g id="编组-105" transform="translate(17.048956, 30.887531)">
                        <mask id="mask-13" fill="white">
                            <use xlink:href="#path-12"></use>
                        </mask>
                        <use id="路径-248" fill="#EAFFF3" xlink:href="#path-12"></use>
                        <path d="M69.3618111,119.305105 C64.1514723,95.5149533 58.5592828,78.7727476 52.5852425,69.0784883 C43.6241821,54.5370993 32.2521675,45.1631445 20.9273327,40.7089848 C9.60249781,36.2548251 0.370054887,30.3143707 -0.833749667,21.5991494 C-2.03755422,12.8839281 3.30184276,3.89650161 14.9982131,2.35985332 C26.6945835,0.823205037 38.680528,3.89650161 49.3232751,17.6556441 C59.9660221,31.4147866 70.7898492,73.0503233 70.7898492,89.5111312 C70.7898492,100.485003 70.3138365,110.416328 69.3618111,119.305105 Z" id="路径-248" fill="#D3F0E0" mask="url(#mask-13)"></path>
                        <path d="M23.8031025,13.6524169 C23.9507563,13.4197035 24.2596222,13.3495935 24.4929738,13.4972473 C53.619825,31.9273315 69.2261583,67.7464847 71.3453163,120.899853 C71.3559107,121.175776 71.1411468,121.408372 70.8652236,121.419775 C70.5893003,121.43037 70.3567042,121.215606 70.3457056,120.939683 C68.238827,68.0842278 52.7653698,32.5700476 23.9582721,14.3422882 C23.7249205,14.1946344 23.6554487,13.8857685 23.8031025,13.6524169 Z" id="路径-254" fill="#9FC8B1" fill-rule="nonzero" mask="url(#mask-13)"></path>
                        <path d="M2.10955328,9.39371881 C-0.468124531,21.2459323 4.83890245,29.8251967 18.0306342,35.1315118 C37.8182319,43.0909844 45.0262397,50.6209933 54.8953803,65.9239922 C61.4748074,76.1259915 66.5415392,93.4846608 70.0955756,118 L-6.37610406,29.466961 L2.10955328,9.39371881 Z" id="路径-354" fill="#C4E0D1" mask="url(#mask-13)"></path>
                    </g>
                    <g id="编组-104" transform="translate(48.402642, -0.000000)">
                        <mask id="mask-15" fill="white">
                            <use xlink:href="#path-14"></use>
                        </mask>
                        <use id="路径-249" fill="#EAFFF3" xlink:href="#path-14"></use>
                        <path d="M38.4361627,109.727577 C40.2080966,71.0333394 39.2052946,44.753324 35.4277569,30.8875312 C29.7614504,10.088842 20.8541813,-1.27827958 9.37287413,0.114578571 C-2.10843299,1.50743672 -4.5866861,11.539269 0.542720885,19.2423116 C5.67212787,26.9453541 20.1964111,48.5363293 25.3543068,61.4631547 C28.7929039,70.0810384 33.1535225,86.1691793 38.4361627,109.727577 Z" id="路径-249" fill="#D3F0E0" mask="url(#mask-15)" transform="translate(18.642412, 54.863789) rotate(-2.000000) translate(-18.642412, -54.863789) "></path>
                        <path d="M1.96015082,4.87988281 C0.585845275,10.6699219 1.44620769,15.6948242 4.54123807,19.9545898 C9.18378363,26.3442383 28.9997016,54.6122295 32.8727485,77.5431753 L3.69550238,25.6259766 L-2.5784234,12.7954102 L1.96015082,4.87988281 Z" id="路径-356" fill="#C4E0D1" mask="url(#mask-15)"></path>
                    </g>
                    <g id="编组-106" transform="translate(-0.000000, 140.484501)">
                        <mask id="mask-17" fill="white">
                            <use xlink:href="#path-16"></use>
                        </mask>
                        <use id="路径-250" fill="#EAFFF3" xlink:href="#path-16"></use>
                        <path d="M86.8630745,45.7959111 C72.5806324,25.5140129 56.8667378,12.125403 39.7213908,5.6300812 C14.0033702,-4.11290144 -7.10542736e-15,7.90110838 -7.10542736e-15,16.52167 C-7.10542736e-15,25.1422316 6.80949202,30.0268155 17.0489556,30.0268155 C27.2884192,30.0268155 43.7234658,28.0070237 58.8280258,36.5737997 C68.8977326,42.2849837 79.1842128,51.927944 89.6874666,65.5026805 L86.8630745,45.7959111 Z" id="路径-250" fill="#D3F0E0" mask="url(#mask-17)"></path>
                        <path d="M1.1501319,20.1112023 C3.60224814,22.8815414 6.77648803,24.6116846 10.6728516,25.301632 C16.5173969,26.3365529 23.2104492,26.0726281 29.4458008,26.0726281 C47.5162559,26.0726281 66.1025391,30.4051476 89.6874666,63.5026805 L73.4389648,56.501339 L2.37988281,27.6380577 L1.1501319,20.1112023 Z" id="路径-355" fill="#C4E0D1" mask="url(#mask-17)"></path>
                    </g>
                    <path d="M63.5963011,11.6405216 C63.8094921,11.4650103 64.1245976,11.4955556 64.3001089,11.7087466 C74.8415791,24.513311 82.3205992,48.9543952 86.3331527,79.7677903 L86.4536838,80.7034746 C89.7765293,106.781999 90.2171879,135.285754 87.8968469,153.563607 L87.8038207,154.279761 C84.7801018,177.032488 87.8036828,199.576221 96.8773487,221.919195 C96.9812512,222.175044 96.858074,222.466681 96.6022247,222.570583 C96.3463753,222.674486 96.0547388,222.551308 95.9508363,222.295459 C86.945111,200.119782 83.8552445,177.733575 86.6839023,155.144723 L86.812536,154.148024 C89.2247883,135.99643 88.8179579,107.170593 85.4617038,80.8298697 L85.2198735,78.9727728 C81.2011719,48.7675619 73.814123,24.8386348 63.5280761,12.3443293 C63.3525648,12.1311384 63.3831102,11.8160329 63.5963011,11.6405216 Z" id="路径-245" fill="#9FC8B1" fill-rule="nonzero"></path>
                    <path d="M19.210295,152.513695 C50.2079907,155.741553 73.2591803,169.485692 88.3189956,193.730479 C88.4647019,193.965052 88.3926616,194.273329 88.1580891,194.419035 C87.9235165,194.564741 87.6152396,194.492701 87.4695333,194.258128 C72.5772256,170.283012 49.8045783,156.704952 19.1067228,153.508317 C18.8320656,153.479717 18.6325973,153.233878 18.6611979,152.95922 C18.6866207,152.715081 18.8836888,152.530349 19.1200684,152.512399 L19.210295,152.513695 Z" id="路径-252" fill="#9FC8B1" fill-rule="nonzero"></path>
                </g>
            </g>
        </g>
    </g>
</svg>