<?xml version="1.0" standalone="no"?><!DOCTYPE svg PUBLIC "-//W3C//DTD SVG 1.1//EN" "http://www.w3.org/Graphics/SVG/1.1/DTD/svg11.dtd"><svg t="1640176447972" class="icon" viewBox="0 0 1024 1024" version="1.1" xmlns="http://www.w3.org/2000/svg" p-id="2897" xmlns:xlink="http://www.w3.org/1999/xlink" width="200" height="200"><defs><style type="text/css"></style></defs><path d="M682.55 533.33V200.36c0-37.63-19.32-73.86-53.03-99.4C598.04 77.1 556.66 64 513.09 64c-43.57 0-84.9 13.1-116.37 36.96-33.77 25.54-53.08 61.77-53.08 99.4v333.03c-49.5 46.59-77.51 111.21-77.51 179.64a245.392 245.392 0 0 0 72.36 174.61A245.37 245.37 0 0 0 512.48 960H513.89c65.27 0 127.86-26.01 173.93-72.3a245.404 245.404 0 0 0 72.36-174.72 246.315 246.315 0 0 0-77.57-179.65h-0.06z m-40.1 309.22C608.65 876.52 561.79 896 512.48 896c-47.93 0-94.81-19.49-128.86-53.73-34.11-33.92-53.6-80.96-53.48-129.23 0-50.97 20.38-98.22 57.38-133.04l20.13-18.95V200.36c0-17.42 10.09-35.05 27.75-48.39 20.38-15.45 47.98-23.96 77.71-23.96 29.76 0 57.38 8.51 77.78 23.98 17.59 13.32 27.67 30.96 27.67 48.39l0.05 332.97v27.66l20.15 18.95c36.53 34.36 57.46 82.82 57.41 133.21 0.14 48.14-19.35 95.21-53.72 129.38z" p-id="2898"></path><path d="M564.05 597.73V291.81c0-21.28-22.84-38.59-50.96-38.59-28.17 0-50.96 17.3-50.96 38.59v305.92c-54.46 24.09-84.62 83.02-72.32 141.28 12.31 58.27 63.73 99.96 123.28 99.96 59.55 0 110.97-41.69 123.28-99.96 12.31-58.26-17.86-117.19-72.32-141.28zM761.61 269.35h64c17.68 0 32-14.33 32-32s-14.32-32-32-32h-64c-17.67 0-32 14.33-32 32s14.33 32 32 32zM825.61 333.35h-64c-17.67 0-32 14.33-32 32s14.33 32 32 32h64c17.68 0 32-14.33 32-32s-14.32-32-32-32zM825.61 461.35h-64c-17.67 0-32 14.33-32 32s14.33 32 32 32h64c17.68 0 32-14.33 32-32s-14.32-32-32-32z" p-id="2899"></path></svg>